<svg xmlns="http://www.w3.org/2000/svg" id="Laag_1" data-name="Laag 1" viewBox="0 0 566 257.1">
  <defs>
    <style>
      .cls-1{fill:#2eb5b2}.cls-6{fill:#706f6f}
    </style>
  </defs>
  <path d="M658 244l7 15 33 1c5 0 5-2 1-5l-94-58-6 37c0 4 3 8 8 7l38-4c5-1 10 2 13 7" class="cls-1" transform="translate(-145 -162)"/>
  <path fill="#f59b1e" d="M589 233l-2-38c-1-5 3-7 7-4l11 6 5-30c0-5-3-7-7-4l-96 54c-4 2-4 6 0 8l12 5 1-5c1-2 5-3 10-2l51 16c4 2 8-1 8-6" transform="translate(-145 -162)"/>
  <path fill="#e53760" d="M509 280a11 11 0 007 11l30 11 23-40a8 8 0 00-4-12l-46-20z" transform="translate(-145 -162)"/>
  <path fill="#704695" d="M608 336l68-35a9 9 0 004-12l-15-30-50-2c-5 0-11 3-15 7l-34 37c-3 3-9 5-13 4l-7-3-11 19c-3 5-1 9 4 9l52 8a33 33 0 0017-2" transform="translate(-145 -162)"/>
  <path fill="#f5f4f4" d="M575 231c-3 1-8-1-11-5s-3-9-1-12 8-3 11-3 5 5 6 9-2 9-5 11" transform="translate(-145 -162)"/>
  <path d="M163 323h-14v18h14c6 0 10-3 10-9s-4-9-10-9m-1-21h-13v18h13c6 0 10-3 10-9s-4-9-10-9m1 42h-18v-45h17c8 0 14 4 14 12a10 10 0 01-7 10c5 2 8 6 8 11 0 8-6 12-14 12M205 345c-10 0-16-6-16-15v-31h3v30c0 8 5 13 13 13s12-5 12-13v-30h4v31c0 9-7 15-16 15M250 345c-9 0-16-6-16-15v-31h4v30c0 8 5 13 12 13s13-5 13-13v-30h4v31c0 9-7 15-17 15M298 302h-14v18h14c6 0 10-2 10-9s-4-9-10-9m-1 22h-13v20h-4v-45h18c8 0 14 4 14 12 0 7-4 11-11 12l11 21h-4z" class="cls-1" transform="translate(-145 -162)"/>
  <path d="M191 183h-3v-43h-14v-3h31v3h-14v43zM243 161h-25v22h-4v-46h4v21h25v-21h3v46h-3v-22z" class="cls-1"/>
  <path d="M421 345c-9 0-16-6-16-15v-31h4v30c0 8 5 13 12 13s13-5 13-13v-30h3v31c0 9-6 15-16 15" class="cls-1" transform="translate(-145 -162)"/>
  <path d="M306 137h4v46h-4z" class="cls-1"/>
  <path d="M481 345c-7 0-11-2-16-6l3-3c4 4 8 6 13 6 8 0 12-4 12-10 0-2 0-5-2-6l-7-2-5-1a16 16 0 01-9-4 10 10 0 01-4-8c0-8 6-12 15-12a19 19 0 0114 5l-3 2c-2-3-6-4-11-4-7 0-11 3-11 9a7 7 0 002 6 16 16 0 007 3h6l8 3a11 11 0 014 9c0 8-6 13-16 13" class="cls-1" transform="translate(-145 -162)"/>
  <path d="M38 191l-24 28v-28H1v66h13v-20l9-10 17 30h16l-24-40 22-26H38zM65 191v66h45v-12H78v-16h27v-11H78v-16h32v-11H65zM123 191h13v66h-13z" class="cls-6"/>
  <path d="M307 419c-8 0-13-2-18-7l9-8c2 2 4 3 9 3 6 0 11-3 11-11v-43h13v44c0 14-11 22-24 22" class="cls-6" transform="translate(-145 -162)"/>
  <path d="M201 191v66h45v-12h-32v-16h27v-11h-27v-16h32v-11h-45zM298 191v40l-27-40h-12v66h13v-41l27 41h12v-66h-13z" class="cls-6"/>
  <path d="M500 391h-14v16h14c6 0 9-4 9-8s-3-8-9-8m-1-27h-13v15h13c5 0 9-3 9-7s-4-8-9-8m2 54h-29v-65h28c13 0 21 7 21 18a15 15 0 01-9 14c5 1 10 6 10 14 0 13-9 19-21 19M560 419c-14 0-26-9-26-23v-43h14v42c0 8 4 12 12 12s11-4 11-12v-42h14v43c0 14-11 23-25 23M626 364h-13v17h13c5 0 9-3 9-8s-4-9-9-9m10 54l-13-26h-10v26h-13v-65h26c14 0 23 9 23 20 0 9-6 15-13 17l15 28zM705 411c-6 6-12 8-20 8a26 26 0 01-18-7 19 19 0 01-6-10l-1-17 1-16a18 18 0 016-10 26 26 0 0118-7c16 0 24 10 26 21h-13c-2-6-6-10-13-10a11 11 0 00-8 4c-3 3-4 5-4 18s1 16 4 19c2 2 5 3 8 3a12 12 0 0013-12v-3h-13v-10h26v9c0 10-2 16-6 20" class="cls-6" transform="translate(-145 -162)"/>
</svg>
