<svg id="Laag_1" data-name="Laag 1" xmlns="http://www.w3.org/2000/svg" viewBox="0 0 565.99 257.06">
	<defs>
		<style>
			.cls-1 {
				fill: #2eb5b2;
			}

			.cls-2 {
				fill: #f59b1e;
			}

			.cls-3 {
				fill: #e53760;
			}

			.cls-4 {
				fill: #704695;
			}

			.cls-5 {
				fill: #f5f4f4;
			}

			.cls-6 {
				fill: #706f6f;
			}
		</style>
	</defs>
	<title>logo</title>
	<path class="cls-1"
		d="M657.6,243.82,665,258.69l32.66.93c5,.14,5.66-1.85,1.42-4.45l-94.21-57.74-5.57,36.12c-.75,4.79,2.71,8.21,7.7,7.65l37.64-4.27c5-.57,10.81,2.52,13,6.89"
		transform="translate(-145.08 -161.8)" />
	<path class="cls-2"
		d="M588.76,233.2l-2.17-38.5c-.27-4.84,2.95-6.65,7.19-4l11.07,6.78,4.68-30.31c.73-4.79-2.19-6.69-6.54-4.26l-96,53.73c-4.35,2.43-4.17,6,.39,8.08l11.86,5.27,1-4.72c.53-2.6,4.83-3.49,9.61-2l50.78,16c4.78,1.51,8.44-1.19,8.17-6"
		transform="translate(-145.08 -161.8)" />
	<path class="cls-3"
		d="M509.11,279.79a10.61,10.61,0,0,0,6.79,11.66l29.92,10.71,23.32-40.42a7.88,7.88,0,0,0-3.85-11.34l-46-20.46Z"
		transform="translate(-145.08 -161.8)" />
	<path class="cls-4"
		d="M608.08,335.62l68-34.34a9,9,0,0,0,4.14-12L665,258.69l-49.65-1.41c-5-.14-11.81,2.68-15.14,6.31l-34,37.12c-3.33,3.63-9.23,5.43-13.18,4l-7.15-2.57-11.16,19.33c-2.44,4.24-.39,8.28,4.58,9L591,338.33a33.24,33.24,0,0,0,17.06-2.71"
		transform="translate(-145.08 -161.8)" />
	<path class="cls-5"
		d="M574.74,230.63c-3,1.41-7.88-.63-10.83-4.55l-.13-.19c-2.95-3.92-3.15-9-.45-11.44s7.3-3.76,10.26-3,5.65,4.74,6,9-1.82,8.83-4.86,10.23"
		transform="translate(-145.08 -161.8)" />
	<path class="cls-1"
		d="M162.53,322.75H148.65v18.59h13.88c6.42,0,10.65-3.44,10.65-9.29s-4.23-9.3-10.65-9.3M162,302.13H148.65V319.7H162c5.69,0,10.45-2.55,10.45-8.78s-4.76-8.79-10.45-8.79m.93,42.27H145.08V299.08H162.4c7.8,0,13.62,4.39,13.62,11.84a10.36,10.36,0,0,1-7.34,10.18c5.09,1.72,8.07,5.66,8.07,10.95,0,8.08-5.55,12.35-13.82,12.35"
		transform="translate(-145.08 -161.8)" />
	<path class="cls-1"
		d="M204.92,344.78c-9.46,0-16.13-6.24-16.13-15.09V299.08h3.57v30.17c0,7.51,5,12.47,12.56,12.47s12.57-5,12.57-12.47V299.08h3.57v30.61c0,8.85-6.68,15.09-16.14,15.09"
		transform="translate(-145.08 -161.8)" />
	<path class="cls-1"
		d="M250.42,344.78c-9.46,0-16.14-6.24-16.14-15.09V299.08h3.57v30.17c0,7.51,5,12.47,12.57,12.47s12.56-5,12.56-12.47V299.08h3.57v30.61c0,8.85-6.68,15.09-16.13,15.09"
		transform="translate(-145.08 -161.8)" />
	<path class="cls-1"
		d="M297.9,302.13H284v18.33H297.9c6.08,0,10.38-2.86,10.38-9.16s-4.3-9.17-10.38-9.17M297,323.52H284V344.4h-3.57V299.08h17.92c7.67,0,13.49,4.26,13.49,12.15,0,6.82-4.23,11.14-10.84,12.22l11.37,20.95h-4.17Z"
		transform="translate(-145.08 -161.8)" />
	<polygon class="cls-1"
		points="191.11 182.59 187.54 182.59 187.54 140.33 173.52 140.33 173.52 137.28 205.19 137.28 205.19 140.33 191.11 140.33 191.11 182.59" />
	<polygon class="cls-1"
		points="242.56 161.27 218.02 161.27 218.02 182.59 214.45 182.59 214.45 137.28 218.02 137.28 218.02 158.22 242.56 158.22 242.56 137.28 246.13 137.28 246.13 182.59 242.56 182.59 242.56 161.27" />
	<path class="cls-1"
		d="M421.23,344.78c-9.46,0-16.14-6.24-16.14-15.09V299.08h3.57v30.17c0,7.51,5,12.47,12.57,12.47s12.56-5,12.56-12.47V299.08h3.57v30.61c0,8.85-6.68,15.09-16.13,15.09"
		transform="translate(-145.08 -161.8)" />
	<rect class="cls-1" x="306.17" y="137.28" width="3.57" height="45.32" />
	<path class="cls-1"
		d="M481.14,344.78c-6.95,0-11.38-1.85-15.67-6l2.51-2.42c4.23,4.07,7.73,5.34,13.36,5.34,7.47,0,12.1-3.43,12.1-9.36,0-2.73-.8-4.9-2.58-6.36s-2.91-1.91-6.81-2.42l-5.49-.82a16.45,16.45,0,0,1-8.4-3.31,10.16,10.16,0,0,1-3.7-8.34c0-7.64,5.55-12.41,14.61-12.41a19,19,0,0,1,13.56,4.9l-2.32,2.22c-2.78-2.54-5.88-4.2-11.44-4.2C474,301.62,470,305.19,470,311a7.13,7.13,0,0,0,2.45,5.92,15.91,15.91,0,0,0,7,2.8l5.09.76c4.43.58,6.48,1.4,8.4,3a10.94,10.94,0,0,1,4.1,8.78c0,7.7-6,12.54-15.87,12.54"
		transform="translate(-145.08 -161.8)" />
	<polygon class="cls-6"
		points="38.13 190.73 14.03 219.37 14.03 190.73 0.69 190.73 0.69 256.51 14.03 256.51 14.03 236.74 22.86 226.57 40.43 256.51 55.98 256.51 31.7 216.87 54.35 190.73 38.13 190.73" />
	<polygon class="cls-6"
		points="64.53 190.73 64.53 256.51 109.55 256.51 109.55 245.05 77.87 245.05 77.87 229.07 104.84 229.07 104.84 217.61 77.87 217.61 77.87 202.18 109.55 202.18 109.55 190.73 64.53 190.73" />
	<rect class="cls-6" x="122.6" y="190.73" width="13.34" height="65.78" />
	<path class="cls-6"
		d="M306.84,418.86c-7.39,0-12.47-1.84-17.56-6.74l8.83-8.41c2.21,2.13,4.32,3.7,8.73,3.7,6.53,0,10.75-3.7,10.75-11.27V352.53h13.35v44.16c0,14.51-11.43,22.17-24.1,22.17"
		transform="translate(-145.08 -161.8)" />
	<polygon class="cls-6"
		points="200.93 190.73 200.93 256.51 245.95 256.51 245.95 245.05 214.27 245.05 214.27 229.07 241.25 229.07 241.25 217.61 214.27 217.61 214.27 202.18 245.95 202.18 245.95 190.73 200.93 190.73" />
	<polygon class="cls-6"
		points="297.98 190.73 297.98 231.01 270.91 190.73 259.01 190.73 259.01 256.51 272.35 256.51 272.35 216.13 299.42 256.51 311.32 256.51 311.32 190.73 297.98 190.73" />
	<path class="cls-6"
		d="M499.6,390.68H485.68v16.17H499.6c6,0,8.92-3.69,8.92-8.13s-2.88-8-8.92-8m-.87-26.7H485.68v15.16h13.05c5.66,0,8.83-3.05,8.83-7.58s-3.17-7.58-8.83-7.58m2.21,54.33H472.33V352.53h27.46c13.34,0,21.11,7.21,21.11,18.48a15.18,15.18,0,0,1-8.44,13.58c4.12,1.85,9.4,6,9.4,14.78,0,12.29-8.73,18.94-20.92,18.94"
		transform="translate(-145.08 -161.8)" />
	<path class="cls-6"
		d="M559.59,418.86c-14,0-25.15-9.14-25.15-23.09V352.53h13.34V395.3c0,7.58,4.61,12.11,11.81,12.11s11.9-4.53,11.9-12.11V352.53h13.25v43.24c0,14-11.14,23.09-25.15,23.09"
		transform="translate(-145.08 -161.8)" />
	<path class="cls-6"
		d="M625.54,364H613v17.37h12.58c5.85,0,9.69-3.6,9.69-8.68s-3.84-8.69-9.69-8.69m10.36,54.33-13.34-26.24H613v26.24H599.62V352.53H626.4c13.92,0,22.18,9.15,22.18,20.14,0,9.24-5.86,15-12.48,17.28l15.26,28.36Z"
		transform="translate(-145.08 -161.8)" />
	<path class="cls-6"
		d="M704.54,411.38c-5.28,5.17-11.62,7.48-19.29,7.48a25.56,25.56,0,0,1-18.43-7.2,18.84,18.84,0,0,1-5.57-9.89q-1.15-5.53-1.15-16.35t1.15-16.35a18.47,18.47,0,0,1,5.57-9.89,25.56,25.56,0,0,1,18.43-7.2c15.55,0,23.9,9.6,25.72,21.06H697.53c-1.63-6.38-5.66-9.61-12.28-9.61a11.1,11.1,0,0,0-8.55,3.51c-2.49,3.05-3.26,5.45-3.26,18.48S674,400.94,676.7,404c2,2.31,4.9,3.42,8.55,3.42a11.66,11.66,0,0,0,12.57-12.47v-2.5H685.25V381.72h25.82v9.61c0,9.61-1.83,15.25-6.53,20.05"
		transform="translate(-145.08 -161.8)" />
</svg>
