<svg width="800" height="165" xmlns="http://www.w3.org/2000/svg">
 <defs>
  <style>.cls-1{fill:#2eb5b2;}.cls-2{fill:#f59b1e;}.cls-3{fill:#e53760;}.cls-4{fill:#704695;}.cls-5{fill:#f5f4f4;}.cls-6{fill:#706f6f;}</style>
 </defs>
 <title>logo</title>
 <g>
  <title>background</title>
  <rect fill="none" id="canvas_background" height="167" width="802" y="-1" x="-1"/>
 </g>
 <g>
  <title>Layer 1</title>
  <g stroke="null" id="svg_25">
   <path stroke="null" id="svg_1" d="m140.013267,76.779106l6.652671,13.368272l29.361651,0.836079c4.495048,0.125861 5.088394,-1.663168 1.276594,-4.000592l-84.695688,-51.90881l-5.007483,32.472224c-0.674257,4.306256 2.436316,7.380868 6.922373,6.877423l33.838719,-3.838771c4.495048,-0.512435 9.718293,2.265504 11.687124,6.194176" class="cls-1"/>
   <path stroke="null" id="svg_2" d="m78.125451,67.231625l-1.950851,-34.611867c-0.242733,-4.351206 2.652078,-5.978413 6.463879,-3.596038l9.952036,6.095285l4.207365,-27.248979c0.656277,-4.306256 -1.968831,-6.014374 -5.879522,-3.829781l-86.304915,48.303782c-3.910691,2.184593 -3.74887,5.394057 0.350614,7.263997l10.662253,4.73778l0.89901,-4.243325c0.476475,-2.337425 4.342216,-3.137543 8.639482,-1.798019l45.651704,14.384152c4.297266,1.357504 7.58764,-1.069821 7.344908,-5.394057" class="cls-2"/>
   <path stroke="null" id="svg_3" d="m7.418352,109.116479a9.538491,9.538491 0 0 0 6.104275,10.482451l26.898365,9.628392l20.964902,-36.337965a7.084195,7.084195 0 0 0 -3.461187,-10.194768l-41.354438,-18.393735l-9.151917,44.815625z" class="cls-3"/>
   <path stroke="null" id="svg_4" d="m96.393325,159.308181l61.132648,-30.871987a8.091086,8.091086 0 0 0 3.721899,-10.788114l-13.682925,-27.500702l-44.635823,-1.267603c-4.495048,-0.125861 -10.617303,2.409346 -13.611004,5.67275l-30.566324,33.371234c-2.993702,3.263405 -8.297858,4.881622 -11.848946,3.596038l-6.427918,-2.310454l-10.032946,17.377854c-2.193583,3.8118 -0.350614,7.443799 4.117464,8.091086l46.478793,7.066215a29.883077,29.883077 0 0 0 15.337103,-2.436316" class="cls-4"/>
   <path stroke="null" id="svg_5" d="m66.420347,64.921171c-2.697029,1.267603 -7.084195,-0.566376 -9.736273,-4.090493l-0.116871,-0.170812c-2.652078,-3.524117 -2.83188,-8.091086 -0.404554,-10.284669s6.56277,-3.380276 9.223838,-2.697029s5.079404,4.261305 5.394057,8.091086s-1.636197,7.938254 -4.369186,9.196867" class="cls-5"/>
  </g>
  <g id="svg_26">
   <path id="svg_6" d="m231.471528,46.484554l-13.88,0l0,18.59l13.88,0c6.42,0 10.65,-3.44 10.65,-9.29s-4.23,-9.3 -10.65,-9.3m-0.53,-20.62l-13.35,0l0,17.57l13.35,0c5.69,0 10.45,-2.55 10.45,-8.78s-4.76,-8.79 -10.45,-8.79m0.93,42.27l-17.85,0l0,-45.32l17.32,0c7.8,0 13.62,4.39 13.62,11.84a10.36,10.36 0 0 1 -7.34,10.18c5.09,1.72 8.07,5.66 8.07,10.95c0,8.08 -5.55,12.35 -13.82,12.35" class="cls-1"/>
   <path id="svg_7" d="m273.861528,68.514554c-9.46,0 -16.13,-6.24 -16.13,-15.09l0,-30.61l3.57,0l0,30.17c0,7.51 5,12.47 12.56,12.47s12.57,-5 12.57,-12.47l0,-30.17l3.57,0l0,30.61c0,8.85 -6.68,15.09 -16.14,15.09" class="cls-1"/>
   <path id="svg_8" d="m319.361528,68.514554c-9.46,0 -16.14,-6.24 -16.14,-15.09l0,-30.61l3.57,0l0,30.17c0,7.51 5,12.47 12.57,12.47s12.56,-5 12.56,-12.47l0,-30.17l3.57,0l0,30.61c0,8.85 -6.68,15.09 -16.13,15.09" class="cls-1"/>
   <path id="svg_9" d="m366.841528,25.864554l-13.9,0l0,18.33l13.9,0c6.08,0 10.38,-2.86 10.38,-9.16s-4.3,-9.17 -10.38,-9.17m-0.9,21.39l-13,0l0,20.88l-3.57,0l0,-45.32l17.92,0c7.67,0 13.49,4.26 13.49,12.15c0,6.82 -4.23,11.14 -10.84,12.22l11.37,20.95l-4.17,0l-11.2,-20.88z" class="cls-1"/>
   <polygon id="svg_10" points="405.13153076171875,68.12455749511719 401.5615234375,68.12455749511719 401.5615234375,25.864559173583984 387.5415344238281,25.864559173583984 387.5415344238281,22.814556121826172 419.2115478515625,22.814556121826172 419.2115478515625,25.864559173583984 405.13153076171875,25.864559173583984 405.13153076171875,68.12455749511719 " class="cls-1"/>
   <polygon id="svg_11" points="456.58154296875,46.804561614990234 432.0415344238281,46.804561614990234 432.0415344238281,68.12455749511719 428.4715270996094,68.12455749511719 428.4715270996094,22.814556121826172 432.0415344238281,22.814556121826172 432.0415344238281,43.75455856323242 456.58154296875,43.75455856323242 456.58154296875,22.814556121826172 460.15155029296875,22.814556121826172 460.15155029296875,68.12455749511719 456.58154296875,68.12455749511719 456.58154296875,46.804561614990234 " class="cls-1"/>
   <path id="svg_12" d="m490.171528,68.514554c-9.46,0 -16.14,-6.24 -16.14,-15.09l0,-30.61l3.57,0l0,30.17c0,7.51 5,12.47 12.57,12.47s12.56,-5 12.56,-12.47l0,-30.17l3.57,0l0,30.61c0,8.85 -6.68,15.09 -16.13,15.09" class="cls-1"/>
   <rect id="svg_13" height="45.32" width="3.57" y="22.814557" x="520.19153" class="cls-1"/>
   <path id="svg_14" d="m550.081528,68.514554c-6.95,0 -11.38,-1.85 -15.67,-6l2.51,-2.42c4.23,4.07 7.73,5.34 13.36,5.34c7.47,0 12.1,-3.43 12.1,-9.36c0,-2.73 -0.8,-4.9 -2.58,-6.36s-2.91,-1.91 -6.81,-2.42l-5.49,-0.82a16.45,16.45 0 0 1 -8.4,-3.31a10.16,10.16 0 0 1 -3.7,-8.34c0,-7.64 5.55,-12.41 14.61,-12.41a19,19 0 0 1 13.56,4.9l-2.32,2.22c-2.78,-2.54 -5.88,-4.2 -11.44,-4.2c-6.87,0.02 -10.87,3.59 -10.87,9.4a7.13,7.13 0 0 0 2.45,5.92a15.91,15.91 0 0 0 7,2.8l5.09,0.76c4.43,0.58 6.48,1.4 8.4,3a10.94,10.94 0 0 1 4.1,8.78c0,7.7 -6,12.54 -15.87,12.54" class="cls-1"/>
   <polygon id="svg_15" points="252.15155029296875,76.26455688476562 228.05152893066406,104.90455627441406 228.05152893066406,76.26455688476562 214.71153259277344,76.26455688476562 214.71153259277344,142.04457092285156 228.05152893066406,142.04457092285156 228.05152893066406,122.27456665039062 236.88153076171875,112.10456848144531 254.4515380859375,142.04457092285156 270.00152587890625,142.04457092285156 245.72152709960938,102.40455627441406 268.37152099609375,76.26455688476562 252.15155029296875,76.26455688476562 " class="cls-6"/>
   <polygon id="svg_16" points="278.5515441894531,76.26455688476562 278.5515441894531,142.04457092285156 323.571533203125,142.04457092285156 323.571533203125,130.58456420898438 291.89154052734375,130.58456420898438 291.89154052734375,114.60456848144531 318.8615417480469,114.60456848144531 318.8615417480469,103.1445541381836 291.89154052734375,103.1445541381836 291.89154052734375,87.71455383300781 323.571533203125,87.71455383300781 323.571533203125,76.26455688476562 278.5515441894531,76.26455688476562 " class="cls-6"/>
   <rect id="svg_17" height="65.78" width="13.34" y="76.264557" x="336.62153" class="cls-6"/>
   <path id="svg_18" d="m375.781528,142.594554c-7.39,0 -12.47,-1.84 -17.56,-6.74l8.83,-8.41c2.21,2.13 4.32,3.7 8.73,3.7c6.53,0 10.75,-3.7 10.75,-11.27l0,-43.61l13.35,0l0,44.16c0,14.51 -11.43,22.17 -24.1,22.17" class="cls-6"/>
   <polygon id="svg_19" points="414.9515380859375,76.26455688476562 414.9515380859375,142.04457092285156 459.9715270996094,142.04457092285156 459.9715270996094,130.58456420898438 428.2915344238281,130.58456420898438 428.2915344238281,114.60456848144531 455.27154541015625,114.60456848144531 455.27154541015625,103.1445541381836 428.2915344238281,103.1445541381836 428.2915344238281,87.71455383300781 459.9715270996094,87.71455383300781 459.9715270996094,76.26455688476562 414.9515380859375,76.26455688476562 " class="cls-6"/>
   <polygon id="svg_20" points="512.0015258789062,76.26455688476562 512.0015258789062,116.5445556640625 484.9315185546875,76.26455688476562 473.03155517578125,76.26455688476562 473.03155517578125,142.04457092285156 486.37152099609375,142.04457092285156 486.37152099609375,101.66456604003906 513.4415283203125,142.04457092285156 525.341552734375,142.04457092285156 525.341552734375,76.26455688476562 512.0015258789062,76.26455688476562 " class="cls-6"/>
   <path id="svg_21" d="m568.541528,114.414554l-13.92,0l0,16.17l13.92,0c6,0 8.92,-3.69 8.92,-8.13s-2.88,-8 -8.92,-8m-0.87,-26.7l-13.05,0l0,15.16l13.05,0c5.66,0 8.83,-3.05 8.83,-7.58s-3.17,-7.58 -8.83,-7.58m2.21,54.33l-28.61,0l0,-65.82l27.46,0c13.34,0 21.11,7.21 21.11,18.48a15.18,15.18 0 0 1 -8.44,13.58c4.12,1.85 9.4,6 9.4,14.78c0,12.29 -8.73,18.94 -20.92,18.94" class="cls-6"/>
   <path id="svg_22" d="m628.531528,142.594554c-14,0 -25.15,-9.14 -25.15,-23.09l0,-43.24l13.34,0l0,42.77c0,7.58 4.61,12.11 11.81,12.11s11.9,-4.53 11.9,-12.11l0,-42.77l13.25,0l0,43.24c0,14 -11.14,23.09 -25.15,23.09" class="cls-6"/>
   <path id="svg_23" d="m694.481528,87.734554l-12.54,0l0,17.37l12.58,0c5.85,0 9.69,-3.6 9.69,-8.68s-3.84,-8.69 -9.69,-8.69m10.36,54.33l-13.34,-26.24l-9.6,0l0,26.24l-13.38,0l0,-65.8l26.78,0c13.92,0 22.18,9.15 22.18,20.14c0,9.24 -5.86,15 -12.48,17.28l15.26,28.36l-15.42,0.02z" class="cls-6"/>
   <path id="svg_24" d="m773.481528,135.114554c-5.28,5.17 -11.62,7.48 -19.29,7.48a25.56,25.56 0 0 1 -18.43,-7.2a18.84,18.84 0 0 1 -5.57,-9.89q-1.15,-5.53 -1.15,-16.35t1.15,-16.35a18.47,18.47 0 0 1 5.57,-9.89a25.56,25.56 0 0 1 18.43,-7.2c15.55,0 23.9,9.6 25.72,21.06l-13.44,0c-1.63,-6.38 -5.66,-9.61 -12.28,-9.61a11.1,11.1 0 0 0 -8.55,3.51c-2.49,3.05 -3.26,5.45 -3.26,18.48s0.56,15.52 3.26,18.58c2,2.31 4.9,3.42 8.55,3.42a11.66,11.66 0 0 0 12.57,-12.47l0,-2.5l-12.57,0l0,-10.73l25.82,0l0,9.61c0,9.61 -1.83,15.25 -6.53,20.05" class="cls-6"/>
  </g>
 </g>
</svg>