<svg xmlns="http://www.w3.org/2000/svg" viewBox="0 0 800 165">
  <defs>
    <style>
      .cls-1{fill:#2eb5b2}.cls-6{fill:#706f6f}
    </style>
  </defs>
  <path id="canvas_background" fill="none" d="M-1-1h802v167H-1z"/>
  <g>
    <g id="svg_25" stroke="null">
      <path id="svg_1" stroke="null" d="M140 77l7 13 29 1c5 0 5-2 1-4L93 35l-5 33c-1 4 2 7 7 6l33-3c5-1 10 2 12 6" class="cls-1"/>
      <path id="svg_2" fill="#f59b1e" stroke="null" d="M78 67l-2-34c0-5 3-6 7-4l10 6 4-27c0-4-2-6-6-4L5 52c-4 3-4 6 0 8l11 4 1-4c0-2 4-3 8-2l46 15c4 1 7-1 7-6"/>
      <path id="svg_3" fill="#e53760" stroke="null" d="M7 109a10 10 0 007 11l26 9 21-36a7 7 0 00-3-10L17 64 7 109z"/>
      <path id="svg_4" fill="#704695" stroke="null" d="M96 159l62-31a8 8 0 003-10l-13-28-45-1c-5 0-11 2-14 6l-30 33c-3 3-9 5-12 4l-7-3-10 18c-2 3 0 7 5 8l46 7a30 30 0 0015-3"/>
      <path id="svg_5" fill="#f5f4f4" stroke="null" d="M66 65c-2 1-7-1-9-4h0c-3-4-3-8-1-11s7-3 9-2 5 4 6 8-2 8-5 9"/>
    </g>
    <g id="svg_26">
      <path id="svg_6" d="M231 46h-13v19h13c7 0 11-3 11-9s-4-10-11-10m0-20h-13v17h13c6 0 10-2 10-8s-4-9-10-9m1 42h-18V23h17c8 0 14 4 14 12a10 10 0 01-7 10c5 2 8 5 8 11 0 8-6 12-14 12" class="cls-1"/>
      <path id="svg_7" d="M274 69c-10 0-16-7-16-16V23h3v30c0 7 5 12 13 12s12-5 12-12V23h4v30c0 9-7 16-16 16" class="cls-1"/>
      <path id="svg_8" d="M319 69c-9 0-16-7-16-16V23h4v30c0 7 5 12 12 12s13-5 13-12V23h3v30c0 9-6 16-16 16" class="cls-1"/>
      <path id="svg_9" d="M367 26h-14v18h14c6 0 10-3 10-9s-4-9-10-9m-1 21h-13v21h-4V23h18c8 0 14 4 14 12 0 7-4 11-11 12l11 21h-4l-11-21z" class="cls-1"/>
      <path id="svg_10" d="M405 68h-3V26h-14v-3h31v3h-14v42z" class="cls-1"/>
      <path id="svg_11" d="M457 47h-25v21h-4V23h4v21h25V23h3v45h-3V47z" class="cls-1"/>
      <path id="svg_12" d="M490 69c-9 0-16-7-16-16V23h4v30c0 7 5 12 12 12s13-5 13-12V23h3v30c0 9-6 16-16 16" class="cls-1"/>
      <path id="svg_13" d="M520 23h4v45h-4z" class="cls-1"/>
      <path id="svg_14" d="M550 69c-7 0-11-2-16-6l3-3c4 4 8 5 13 5 8 0 12-3 12-9 0-3 0-5-2-6l-7-3-5-1a16 16 0 01-9-3 10 10 0 01-4-8c0-8 6-13 15-13a19 19 0 0114 5l-3 3c-3-3-6-5-11-5-7 0-11 4-11 10a7 7 0 002 6 16 16 0 007 2l5 1 9 3a11 11 0 014 9c0 8-6 13-16 13" class="cls-1"/>
      <path id="svg_15" d="M252 76l-24 29V76h-13v66h13v-20l9-10 17 30h16l-24-40 22-26h-16z" class="cls-6"/>
      <path id="svg_16" d="M279 76v66h45v-11h-32v-16h27v-12h-27V88h32V76h-45z" class="cls-6"/>
      <path id="svg_17" d="M337 76h13v66h-13z" class="cls-6"/>
      <path id="svg_18" d="M376 143c-8 0-13-2-18-7l9-9c2 3 4 4 9 4 6 0 11-4 11-11V76h13v44c0 15-12 23-24 23" class="cls-6"/>
      <path id="svg_19" d="M415 76v66h45v-11h-32v-16h27v-12h-27V88h32V76h-45z" class="cls-6"/>
      <path id="svg_20" d="M512 76v41l-27-41h-12v66h13v-40l27 40h12V76h-13z" class="cls-6"/>
      <path id="svg_21" d="M569 114h-14v17h14c6 0 8-4 8-9s-2-8-8-8m-1-26h-13v15h13c5 0 9-3 9-8s-4-7-9-7m2 54h-29V76h28c13 0 21 7 21 19a15 15 0 01-9 13c5 2 10 6 10 15 0 12-9 19-21 19" class="cls-6"/>
      <path id="svg_22" d="M629 143c-14 0-26-10-26-23V76h14v43c0 8 4 12 12 12s11-4 11-12V76h14v44c0 14-11 23-25 23" class="cls-6"/>
      <path id="svg_23" d="M694 88h-12v17h13c5 0 9-3 9-9s-4-8-9-8m10 54l-13-26h-10v26h-13V76h26c14 0 23 9 23 20 0 10-6 15-13 18l15 28h-15z" class="cls-6"/>
      <path id="svg_24" d="M773 135c-5 5-11 8-19 8a26 26 0 01-18-8 19 19 0 01-6-9l-1-17 1-16a18 18 0 016-10 26 26 0 0118-7c16 0 24 9 26 21h-14c-1-7-5-10-12-10a11 11 0 00-8 4c-3 3-4 5-4 18s1 16 4 19c2 2 5 3 8 3a12 12 0 0013-12v-3h-13v-11h26v10c0 10-2 15-7 20" class="cls-6"/>
    </g>
  </g>
</svg>
